<svg width="100" height="100" viewBox="0 0 100 100" fill="none" xmlns="http://www.w3.org/2000/svg">
  <circle cx="50" cy="50" r="50" fill="#2563EB"/>
  <path d="M33.6 59V42.8H38.68C40.2 42.8 41.48 43.12 42.52 43.76C43.56 44.4 44.34 45.3 44.86 46.46C45.38 47.6 45.64 48.9 45.64 50.36C45.64 51.84 45.38 53.16 44.86 54.32C44.34 55.46 43.56 56.34 42.52 56.96C41.48 57.58 40.2 57.9 38.68 57.9H35.82V59H33.6ZM35.82 55.88H38.58C39.66 55.88 40.56 55.66 41.28 55.22C42 54.78 42.54 54.16 42.9 53.36C43.26 52.56 43.44 51.58 43.44 50.42C43.44 49.26 43.26 48.28 42.9 47.48C42.54 46.68 42 46.06 41.28 45.62C40.56 45.18 39.66 44.96 38.58 44.96H35.82V55.88ZM48.1563 59V42.8H55.7963C56.9563 42.8 57.9363 43 58.7363 43.4C59.5363 43.78 60.1363 44.32 60.5363 45.02C60.9363 45.72 61.1363 46.52 61.1363 47.42C61.1363 48.14 60.9963 48.8 60.7163 49.4C60.4363 49.98 60.0363 50.46 59.5163 50.84C58.9963 51.22 58.3763 51.48 57.6563 51.62L57.6563 51.82C58.4563 51.84 59.1963 52.06 59.8763 52.48C60.5563 52.88 61.1163 53.44 61.5563 54.16C61.9963 54.88 62.2163 55.7 62.2163 56.62C62.2163 57.6 61.9963 58.46 61.5563 59.2C61.1163 59.94 60.4563 60.52 59.5763 60.94C58.6963 61.36 57.6163 61.58 56.3363 61.58C55.8563 61.58 55.3763 61.56 54.8963 61.52C54.4163 61.5 53.9963 61.46 53.6363 61.4C53.2763 61.34 53.0163 61.3 52.8563 61.28V59H56.3963C57.4363 59 58.2363 58.72 58.7963 58.16C59.3563 57.6 59.6363 56.86 59.6363 55.94C59.6363 55.22 59.4963 54.62 59.2163 54.14C58.9363 53.66 58.5363 53.3 58.0163 53.06C57.4963 52.82 56.8763 52.7 56.1563 52.7H52.4163V50.72H55.7363C56.6763 50.72 57.4363 50.48 58.0163 50C58.5963 49.52 58.8863 48.82 58.8863 47.9C58.8863 46.98 58.6163 46.3 58.0763 45.86C57.5363 45.42 56.7963 45.2 55.8563 45.2H50.3763V59H48.1563Z" fill="white"/>
</svg>